<svg xmlns="http://www.w3.org/2000/svg" width="280.633" height="57.677" viewBox="0 0 280.633 57.677">
  <g id="Groupe_1546" data-name="Groupe 1546" transform="translate(-33.773 -28.702)">
    <g id="Groupe_1546-2" data-name="Groupe 1546">
      <path id="Tracé_851" data-name="Tracé 851" d="M36.689,75.28l-2.916,8.583h1.67l.753-2.27h3.739l.775,2.27h1.728l-3.01-8.583Zm-.022,4.891,1.159-3.492h.433l1.191,3.492Z" fill="#fff"/>
      <path id="Tracé_852" data-name="Tracé 852" d="M42.54,75.28V76.5h.8v7.36h1.634V75.28H42.54Z" fill="#fff"/>
      <path id="Tracé_853" data-name="Tracé 853" d="M45.841,75.28V76.5h.8v7.36h1.634V75.28H45.841Z" fill="#fff"/>
      <path id="Tracé_854" data-name="Tracé 854" d="M54.058,75.68h-1.54v1.8H51.507v1.2h1.011v2.786a3.29,3.29,0,0,0,.277,1.476,1.576,1.576,0,0,0,.846.776,3.965,3.965,0,0,0,1.464.229h.917v-1.4h-1a.881.881,0,0,1-.975-.976l0-2.892h1.97v-1.2H54.055Z" fill="#fff"/>
      <path id="Tracé_855" data-name="Tracé 855" d="M60.644,77.279h-.071a2.063,2.063,0,0,0-1.24.352,2.1,2.1,0,0,0-.7.943V75.28H57v8.583h1.634V80.171A1.438,1.438,0,0,1,59,79.142a1.266,1.266,0,0,1,.969-.394,1.216,1.216,0,0,1,.906.359,1.306,1.306,0,0,1,.352.958v3.8h1.635V80.218a3.606,3.606,0,0,0-.565-2.187A1.941,1.941,0,0,0,60.644,77.279Z" fill="#fff"/>
      <path id="Tracé_856" data-name="Tracé 856" d="M68.883,77.708a3.13,3.13,0,0,0-1.735-.453,3.312,3.312,0,0,0-1.393.277,2.887,2.887,0,0,0-1,.74,3.24,3.24,0,0,0-.605,1.058,3.709,3.709,0,0,0-.206,1.229v.223a3.583,3.583,0,0,0,.206,1.2,3.331,3.331,0,0,0,.611,1.065,2.905,2.905,0,0,0,1.023.758,3.432,3.432,0,0,0,1.44.282,3.476,3.476,0,0,0,1.4-.27,2.648,2.648,0,0,0,1.017-.765,2.7,2.7,0,0,0,.541-1.152H68.665a1.075,1.075,0,0,1-.482.594,1.755,1.755,0,0,1-.964.241,1.713,1.713,0,0,1-.988-.265,1.578,1.578,0,0,1-.576-.728,2.641,2.641,0,0,1-.155-.665h4.787v-.6a3.608,3.608,0,0,0-.352-1.581A2.874,2.874,0,0,0,68.883,77.708Zm-3.364,2.357a2.318,2.318,0,0,1,.142-.494,1.563,1.563,0,0,1,.57-.711,1.6,1.6,0,0,1,.917-.253,1.585,1.585,0,0,1,.894.235,1.459,1.459,0,0,1,.535.671,2.3,2.3,0,0,1,.142.552Z" fill="#fff"/>
      <path id="Tracé_857" data-name="Tracé 857" d="M77.677,77.643a4.5,4.5,0,0,0-1.64-.258c-.212,0-.439,0-.682,0s-.476.014-.7.03-.425.031-.6.047v1.387q.328-.022.746-.041t.829-.03q.413-.01.706-.011a1.107,1.107,0,0,1,.823.276,1.124,1.124,0,0,1,.27.817v.059H76.131a4.463,4.463,0,0,0-1.482.224,2.021,2.021,0,0,0-.975.67,1.839,1.839,0,0,0-.341,1.152,2.028,2.028,0,0,0,.288,1.1,1.877,1.877,0,0,0,.805.705,2.78,2.78,0,0,0,1.211.247,2.431,2.431,0,0,0,1.134-.241,1.756,1.756,0,0,0,.729-.7,2.239,2.239,0,0,0,.195-.465v1.242H79V79.912a2.792,2.792,0,0,0-.335-1.452A1.95,1.95,0,0,0,77.677,77.643ZM77.424,81.5a1.67,1.67,0,0,1-.212.817,1.045,1.045,0,0,1-.476.424,1.582,1.582,0,0,1-.629.123,1.25,1.25,0,0,1-.864-.27.98.98,0,0,1,0-1.411,1.25,1.25,0,0,1,.864-.271h1.317Z" fill="#fff"/>
      <path id="Tracé_858" data-name="Tracé 858" d="M84.547,82.1a1.25,1.25,0,0,1-.489.423,1.635,1.635,0,0,1-.74.153,1.513,1.513,0,0,1-.911-.259,1.489,1.489,0,0,1-.529-.717,2.908,2.908,0,0,1-.171-1.023,2.841,2.841,0,0,1,.177-1.04,1.533,1.533,0,0,1,.534-.711,1.474,1.474,0,0,1,.888-.259,1.381,1.381,0,0,1,.988.335,1.316,1.316,0,0,1,.411.817h1.6a2.6,2.6,0,0,0-.441-1.34,2.684,2.684,0,0,0-1.052-.9,3.38,3.38,0,0,0-1.5-.323,3.342,3.342,0,0,0-1.4.277,2.939,2.939,0,0,0-1.011.74,3.185,3.185,0,0,0-.611,1.058,3.745,3.745,0,0,0-.206,1.241v.223a3.679,3.679,0,0,0,.2,1.2,3.283,3.283,0,0,0,.6,1.064,2.8,2.8,0,0,0,1.012.753,3.455,3.455,0,0,0,1.434.276,3.4,3.4,0,0,0,1.523-.329,2.782,2.782,0,0,0,1.069-.911,2.6,2.6,0,0,0,.453-1.358h-1.6A1.317,1.317,0,0,1,84.547,82.1Z" fill="#fff"/>
      <path id="Tracé_859" data-name="Tracé 859" d="M91.558,82.1a1.247,1.247,0,0,1-.488.423,1.643,1.643,0,0,1-.741.153,1.422,1.422,0,0,1-1.44-.976,2.908,2.908,0,0,1-.17-1.023,2.862,2.862,0,0,1,.176-1.04,1.541,1.541,0,0,1,.535-.711,1.474,1.474,0,0,1,.888-.259,1.377,1.377,0,0,1,.987.335,1.317,1.317,0,0,1,.412.817h1.6a2.622,2.622,0,0,0-.441-1.34,2.684,2.684,0,0,0-1.052-.9,3.38,3.38,0,0,0-1.5-.323,3.339,3.339,0,0,0-1.4.277,2.939,2.939,0,0,0-1.011.74,3.187,3.187,0,0,0-.612,1.058,3.77,3.77,0,0,0-.205,1.241v.223a3.679,3.679,0,0,0,.2,1.2,3.283,3.283,0,0,0,.6,1.064,2.8,2.8,0,0,0,1.011.753,3.461,3.461,0,0,0,1.434.276,3.391,3.391,0,0,0,1.523-.329,2.778,2.778,0,0,0,1.07-.911,2.611,2.611,0,0,0,.453-1.358h-1.6A1.318,1.318,0,0,1,91.558,82.1Z" fill="#fff"/>
      <path id="Tracé_860" data-name="Tracé 860" d="M99.04,77.708a3.125,3.125,0,0,0-1.734-.453,3.308,3.308,0,0,0-1.393.277,2.891,2.891,0,0,0-1.006.74,3.24,3.24,0,0,0-.6,1.058,3.735,3.735,0,0,0-.206,1.229v.223a3.608,3.608,0,0,0,.206,1.2,3.33,3.33,0,0,0,.611,1.065,2.924,2.924,0,0,0,1.023.758,3.44,3.44,0,0,0,1.441.282,3.476,3.476,0,0,0,1.4-.27,2.652,2.652,0,0,0,1.016-.765,2.693,2.693,0,0,0,.541-1.152H98.823a1.079,1.079,0,0,1-.482.594,1.758,1.758,0,0,1-.964.241,1.713,1.713,0,0,1-.988-.265,1.566,1.566,0,0,1-.576-.728,2.641,2.641,0,0,1-.155-.665h4.787v-.6a3.609,3.609,0,0,0-.353-1.581A2.874,2.874,0,0,0,99.04,77.708Zm-3.363,2.357a2.317,2.317,0,0,1,.142-.494,1.563,1.563,0,0,1,.57-.711,1.6,1.6,0,0,1,.917-.253,1.584,1.584,0,0,1,.893.235,1.447,1.447,0,0,1,.535.671,2.3,2.3,0,0,1,.143.552Z" fill="#fff"/>
      <path id="Tracé_861" data-name="Tracé 861" d="M105.136,77.279h-.071a2.315,2.315,0,0,0-1.275.329,2,2,0,0,0-.77.982,3.2,3.2,0,0,0-.141.479V77.478h-1.293v6.385h1.634V80.112a1.345,1.345,0,0,1,.37-.987,1.3,1.3,0,0,1,.97-.377,1.2,1.2,0,0,1,.917.365,1.338,1.338,0,0,1,.341.952v3.8h1.634V80.206a3.461,3.461,0,0,0-.588-2.193A2.083,2.083,0,0,0,105.136,77.279Z" fill="#fff"/>
      <path id="Tracé_862" data-name="Tracé 862" d="M110.6,75.68h-1.54v1.8h-1.011v1.2h1.011v2.786a3.305,3.305,0,0,0,.276,1.476,1.581,1.581,0,0,0,.847.776,3.965,3.965,0,0,0,1.464.229h.917v-1.4h-1a.881.881,0,0,1-.975-.976l.005-2.892h1.97v-1.2H110.6Z" fill="#fff"/>
      <path id="Tracé_863" data-name="Tracé 863" d="M118.21,80.618A3.365,3.365,0,0,0,116.44,80l-.564-.059a1.646,1.646,0,0,1-.746-.223.546.546,0,0,1-.23-.471.608.608,0,0,1,.282-.517,1.365,1.365,0,0,1,.8-.2,1.4,1.4,0,0,1,.876.235.824.824,0,0,1,.335.576h1.469a1.835,1.835,0,0,0-.764-1.528,3.219,3.219,0,0,0-1.9-.518,3.655,3.655,0,0,0-1.347.23,2.023,2.023,0,0,0-.911.675,1.82,1.82,0,0,0-.329,1.106,1.663,1.663,0,0,0,.576,1.322,2.907,2.907,0,0,0,1.658.606l.553.059a2.04,2.04,0,0,1,.911.258.582.582,0,0,1,.264.494.645.645,0,0,1-.353.576,1.778,1.778,0,0,1-.928.212,1.619,1.619,0,0,1-1.035-.27.907.907,0,0,1-.364-.6h-1.482A1.946,1.946,0,0,0,114,83.5a3.38,3.38,0,0,0,2.063.558,3.909,3.909,0,0,0,1.47-.252,2.2,2.2,0,0,0,.97-.724,1.809,1.809,0,0,0,.347-1.1A1.646,1.646,0,0,0,118.21,80.618Z" fill="#fff"/>
      <path id="Tracé_864" data-name="Tracé 864" d="M128.015,78.249a3.2,3.2,0,0,0-1.1-.729,3.8,3.8,0,0,0-1.457-.265,3.853,3.853,0,0,0-1.464.265,3.168,3.168,0,0,0-1.793,1.787,3.364,3.364,0,0,0-.235,1.252v.247a3.358,3.358,0,0,0,.229,1.234,3.081,3.081,0,0,0,.676,1.046,3.264,3.264,0,0,0,1.094.73,4.23,4.23,0,0,0,2.974,0,3.285,3.285,0,0,0,1.094-.73,3.078,3.078,0,0,0,.675-1.046,3.359,3.359,0,0,0,.23-1.234v-.247a3.385,3.385,0,0,0-.235-1.252A3.189,3.189,0,0,0,128.015,78.249Zm-.929,3.456a1.718,1.718,0,0,1-.629.717,1.8,1.8,0,0,1-1,.265,1.825,1.825,0,0,1-1.011-.265,1.7,1.7,0,0,1-.629-.717,2.523,2.523,0,0,1,0-2.063,1.737,1.737,0,0,1,.641-.723,1.813,1.813,0,0,1,.994-.265,1.779,1.779,0,0,1,.987.265,1.751,1.751,0,0,1,.635.723,2.518,2.518,0,0,1,.006,2.063Z" fill="#fff"/>
      <path id="Tracé_865" data-name="Tracé 865" d="M131.7,77.2a.76.76,0,0,1,.193-.553.746.746,0,0,1,.559-.2h.917V75.186h-.8a2.651,2.651,0,0,0-1.793.529,2.04,2.04,0,0,0-.606,1.622v.248h-.8v1.2h.8v5.08H131.7v-5.08h1.775v-1.2H131.7Z" fill="#fff"/>
      <path id="Tracé_866" data-name="Tracé 866" d="M140.736,82.1a1.254,1.254,0,0,1-.488.423,1.643,1.643,0,0,1-.741.153,1.513,1.513,0,0,1-.911-.259,1.5,1.5,0,0,1-.529-.717,2.908,2.908,0,0,1-.171-1.023,2.841,2.841,0,0,1,.177-1.04,1.528,1.528,0,0,1,.535-.711,1.473,1.473,0,0,1,.887-.259,1.38,1.38,0,0,1,.988.335,1.316,1.316,0,0,1,.411.817h1.6a2.6,2.6,0,0,0-.441-1.34,2.677,2.677,0,0,0-1.052-.9,3.38,3.38,0,0,0-1.505-.323,3.342,3.342,0,0,0-1.4.277,2.958,2.958,0,0,0-1.011.74,3.185,3.185,0,0,0-.611,1.058,3.745,3.745,0,0,0-.206,1.241v.223a3.705,3.705,0,0,0,.2,1.2,3.283,3.283,0,0,0,.6,1.064,2.8,2.8,0,0,0,1.012.753,3.455,3.455,0,0,0,1.434.276,3.394,3.394,0,0,0,1.523-.329,2.782,2.782,0,0,0,1.069-.911,2.593,2.593,0,0,0,.453-1.358h-1.6A1.317,1.317,0,0,1,140.736,82.1Z" fill="#fff"/>
      <path id="Tracé_867" data-name="Tracé 867" d="M145.477,78.107a2.752,2.752,0,0,0-.553,1.462V77.478h-1.293v6.385h1.634V80.547a1.567,1.567,0,0,1,1.728-1.728h.447V77.4h-.235A2.113,2.113,0,0,0,145.477,78.107Z" fill="#fff"/>
      <path id="Tracé_868" data-name="Tracé 868" d="M152.757,77.708a3.129,3.129,0,0,0-1.734-.453,3.313,3.313,0,0,0-1.394.277,2.887,2.887,0,0,0-1.005.74,3.24,3.24,0,0,0-.6,1.058,3.709,3.709,0,0,0-.206,1.229v.223a3.582,3.582,0,0,0,.206,1.2,3.331,3.331,0,0,0,.611,1.065,2.905,2.905,0,0,0,1.023.758,3.432,3.432,0,0,0,1.44.282,3.473,3.473,0,0,0,1.4-.27,2.648,2.648,0,0,0,1.017-.765,2.7,2.7,0,0,0,.541-1.152h-1.517a1.071,1.071,0,0,1-.482.594,1.755,1.755,0,0,1-.964.241,1.713,1.713,0,0,1-.988-.265,1.578,1.578,0,0,1-.576-.728,2.641,2.641,0,0,1-.155-.665h4.788v-.6a3.609,3.609,0,0,0-.353-1.581A2.874,2.874,0,0,0,152.757,77.708Zm-3.364,2.357a2.317,2.317,0,0,1,.142-.494,1.57,1.57,0,0,1,.57-.711,1.606,1.606,0,0,1,.918-.253,1.584,1.584,0,0,1,.893.235,1.459,1.459,0,0,1,.535.671,2.346,2.346,0,0,1,.143.552Z" fill="#fff"/>
      <path id="Tracé_869" data-name="Tracé 869" d="M159.18,77.643a4.5,4.5,0,0,0-1.64-.258c-.212,0-.439,0-.682,0s-.477.014-.7.03-.425.031-.605.047v1.387q.329-.022.746-.041c.278-.012.555-.022.829-.03s.51-.011.706-.011a1.107,1.107,0,0,1,.823.276,1.124,1.124,0,0,1,.27.817v.059h-1.293a4.459,4.459,0,0,0-1.482.224,2.029,2.029,0,0,0-.976.67,1.844,1.844,0,0,0-.34,1.152,2.028,2.028,0,0,0,.288,1.1,1.871,1.871,0,0,0,.805.705,2.777,2.777,0,0,0,1.211.247,2.431,2.431,0,0,0,1.134-.241,1.756,1.756,0,0,0,.729-.7,2.185,2.185,0,0,0,.194-.465v1.242h1.3V79.912a2.792,2.792,0,0,0-.335-1.452A1.95,1.95,0,0,0,159.18,77.643Zm-.253,3.856a1.669,1.669,0,0,1-.212.817,1.045,1.045,0,0,1-.476.424,1.586,1.586,0,0,1-.629.123,1.25,1.25,0,0,1-.864-.27.98.98,0,0,1,0-1.411,1.25,1.25,0,0,1,.864-.271h1.317Z" fill="#fff"/>
      <path id="Tracé_870" data-name="Tracé 870" d="M163.679,75.68h-1.54v1.8h-1.011v1.2h1.011v2.786a3.305,3.305,0,0,0,.276,1.476,1.578,1.578,0,0,0,.847.776,3.963,3.963,0,0,0,1.463.229h.917v-1.4h-1a.883.883,0,0,1-.976-.976l.006-2.892h1.969v-1.2h-1.967Z" fill="#fff"/>
      <path id="Tracé_871" data-name="Tracé 871" d="M168.564,76.467a.923.923,0,0,0,.223-.646.82.82,0,0,0-.928-.882.927.927,0,0,0-.712.247.894.894,0,0,0-.229.635.908.908,0,0,0,.229.646.927.927,0,0,0,.712.247A.905.905,0,0,0,168.564,76.467Z" fill="#fff"/>
      <path id="Tracé_872" data-name="Tracé 872" d="M166.365,77.478V78.7h.894v5.161h1.634V77.478h-2.528Z" fill="#fff"/>
      <path id="Tracé_873" data-name="Tracé 873" d="M173.238,82.522h-.277l-1.514-5.044h-1.681l2,6.384h2.622l1.728-6.384h-1.576Z" fill="#fff"/>
      <path id="Tracé_874" data-name="Tracé 874" d="M178.955,76.467a.927.927,0,0,0,.223-.646.82.82,0,0,0-.929-.882.924.924,0,0,0-.711.247.9.9,0,0,0-.23.635.909.909,0,0,0,.23.646.924.924,0,0,0,.711.247A.908.908,0,0,0,178.955,76.467Z" fill="#fff"/>
      <path id="Tracé_875" data-name="Tracé 875" d="M176.756,77.478V78.7h.893v5.161h1.634V77.478h-2.527Z" fill="#fff"/>
      <path id="Tracé_876" data-name="Tracé 876" d="M182.661,75.68h-1.54v1.8H180.11v1.2h1.011v2.786a3.29,3.29,0,0,0,.277,1.476,1.579,1.579,0,0,0,.846.776,3.965,3.965,0,0,0,1.464.229h.917v-1.4h-1a.883.883,0,0,1-.977-.976l.006-2.892h1.97v-1.2h-1.967Z" fill="#fff"/>
      <path id="Tracé_877" data-name="Tracé 877" d="M188.67,82.428h-.248l-1.556-4.95H185.22l2.069,6.243h1.045l-.092.353a1.415,1.415,0,0,1-.235.535.885.885,0,0,1-.383.282,1.591,1.591,0,0,1-.57.088h-1.2v1.4H186.9a4.006,4.006,0,0,0,1.323-.189,1.9,1.9,0,0,0,.876-.617,3.1,3.1,0,0,0,.529-1.146l1.893-6.949h-1.564Z" fill="#fff"/>
      <path id="Tracé_878" data-name="Tracé 878" d="M40.012,64.92a15.154,15.154,0,0,0,7.551,1.736,15.26,15.26,0,0,0,7.6-1.736,11.139,11.139,0,0,0,4.632-4.936A16.928,16.928,0,0,0,61.351,52.5V33.047H55.116V52.86a9.183,9.183,0,0,1-.878,4.148,6.39,6.39,0,0,1-2.547,2.728,8.106,8.106,0,0,1-4.128.969,8.133,8.133,0,0,1-4.1-.969,6.311,6.311,0,0,1-2.568-2.751,9.206,9.206,0,0,1-.878-4.125V33.047H33.777V52.5a16.724,16.724,0,0,0,1.58,7.485A11.273,11.273,0,0,0,40.012,64.92Z" fill="#fff"/>
      <path id="Tracé_879" data-name="Tracé 879" d="M73.422,38.3h.471L84.368,65.892H95.123V32.98H89.081V60.572h-.517L78.089,32.98H67.471V65.892h5.951Z" fill="#fff"/>
      <path id="Tracé_880" data-name="Tracé 880" d="M122.686,60.5H115V38.331h7.684V32.949h-21.55v5.382H108.6V60.5h-7.463v5.382h21.55Z" fill="#fff"/>
      <path id="Tracé_881" data-name="Tracé 881" d="M244.183,60.572h-.448L233.259,32.98h-10.5V65.892h5.951l.206-27.592h.425l10.476,27.592h10.595V32.98h-6.224Z" fill="#fff"/>
      <path id="Tracé_882" data-name="Tracé 882" d="M297.814,51.134h12.624V44.962H291.589V65.788l-.042.1H314v-5.41H297.814Z" fill="#fff"/>
      <path id="Tracé_883" data-name="Tracé 883" d="M198.377,32.98,187.9,65.892h6.343l2.705-8.7h12.732l2.782,8.7h6.578L208.222,32.98Zm.266,18.756,4.163-13.391h.846l4.282,13.391Z" fill="#fff"/>
      <path id="Tracé_884" data-name="Tracé 884" d="M148.658,45.214H128.785V65.892h6.345V51.006h13.528Z" fill="#fff"/>
      <path id="Tracé_885" data-name="Tracé 885" d="M152.163,34.828V28.7l-23.585,6.844v6.02Z" fill="#fff"/>
      <path id="Tracé_886" data-name="Tracé 886" d="M291.482,35.546v6.02l22.924-6.549V28.894Z" fill="#fff"/>
      <path id="Tracé_887" data-name="Tracé 887" d="M277.028,59.054a8.553,8.553,0,0,1-5.567,1.819,9.361,9.361,0,0,1-4.107-.853,8.291,8.291,0,0,1-2.98-2.4A10.681,10.681,0,0,1,262.56,54a15.923,15.923,0,0,1-.6-4.451,16.088,16.088,0,0,1,.6-4.493,10.9,10.9,0,0,1,1.772-3.593,8.083,8.083,0,0,1,2.918-2.38,9.782,9.782,0,0,1,4.148-.853,9.5,9.5,0,0,1,3.982.808,7.458,7.458,0,0,1,2.918,2.335,7.849,7.849,0,0,1,1.439,3.773h6a15.042,15.042,0,0,0-2.21-6.737,12.756,12.756,0,0,0-4.92-4.49,15.325,15.325,0,0,0-7.213-1.616,15.917,15.917,0,0,0-7.046,1.459,13.555,13.555,0,0,0-4.753,3.884,16.78,16.78,0,0,0-2.751,5.389,20.668,20.668,0,0,0-.9,6.018v.9a20.043,20.043,0,0,0,.875,5.726,17.85,17.85,0,0,0,2.731,5.478,13.821,13.821,0,0,0,4.794,4.088,15.09,15.09,0,0,0,7.109,1.548,14.311,14.311,0,0,0,7.276-1.751,13.25,13.25,0,0,0,4.92-4.67,15.668,15.668,0,0,0,2.21-6.422h-6A7.64,7.64,0,0,1,277.028,59.054Z" fill="#fff"/>
    </g>
    <path id="Tracé_888" data-name="Tracé 888" d="M175.879,53.808c6.229-1.988,7.781-10.512,4.927-15.765-2.35-4.15-6.717-5.212-11.5-5.269H157.114V65.845H163.5V54.116s5.343,0,5.345,0l8.288,11.729h7.514ZM163.5,38.218h6.479A5.361,5.361,0,0,1,175.7,43.79a5.293,5.293,0,0,1-5.714,5.34H163.5Z" fill="#fff"/>
  </g>
</svg>
